<svg width="80" height="80" viewBox="0 0 80 80" fill="none" xmlns="http://www.w3.org/2000/svg">
<path d="M23.6618 67.4794L23.667 67.4844L23.6722 67.4894C26.1576 69.847 30.2874 69.8141 33.0163 67.0899L33.025 67.0811L33.0334 67.0722L70.6383 26.9846C73.1319 24.5312 72.7335 20.5444 70.3067 18.2423L70.2987 18.2348L70.2905 18.2275L66.6952 15.012C64.1812 12.6367 60.0867 13.0467 57.6957 15.3858L57.6864 15.3949L57.6775 15.4043L27.8835 46.6328L19.3511 38.3095L19.3511 38.3094L19.3435 38.3022C16.8854 35.9705 12.7624 35.9536 10.3127 38.3459L6.61388 41.8661L6.61383 41.866L6.60643 41.8733C4.16129 44.2653 4.10177 48.2843 6.58984 50.6503L23.6618 67.4794Z" fill="#36D41D" stroke="#FCFCFC" stroke-width="1.5"/>
</svg>
