<svg width="14" height="14" viewBox="0 0 14 14" fill="none" xmlns="http://www.w3.org/2000/svg">
<path fill-rule="evenodd" clip-rule="evenodd" d="M6.66667 13.3333C10.3486 13.3333 13.3333 10.3486 13.3333 6.66667C13.3333 2.98477 10.3486 0 6.66667 0C2.98477 0 0 2.98477 0 6.66667C0 10.3486 2.98477 13.3333 6.66667 13.3333ZM6.66667 12.6667C9.98038 12.6667 12.6667 9.98038 12.6667 6.66667C12.6667 3.35296 9.98038 0.666667 6.66667 0.666667C3.35296 0.666667 0.666667 3.35296 0.666667 6.66667C0.666667 9.98038 3.35296 12.6667 6.66667 12.6667ZM7.9785 4.19273C7.77928 4.37784 7.53942 4.4704 7.25893 4.4704C6.979 4.4704 6.73745 4.37784 6.53653 4.19273C6.33674 4.00761 6.23572 3.78243 6.23572 3.51943C6.23572 3.257 6.33731 3.03125 6.53653 2.84444C6.73745 2.65707 6.979 2.56394 7.25893 2.56394C7.53942 2.56394 7.77984 2.65707 7.9785 2.84444C8.17773 3.03125 8.27762 3.257 8.27762 3.51943C8.27762 3.78299 8.17773 4.00761 7.9785 4.19273ZM8.05413 10.332C7.71099 10.4675 7.43783 10.5702 7.23296 10.6413C7.02866 10.7124 6.79106 10.748 6.52072 10.748C6.10535 10.748 5.78196 10.6464 5.55169 10.4438C5.32143 10.2412 5.20686 9.98437 5.20686 9.67228C5.20686 9.55093 5.21533 9.42677 5.23226 9.30035C5.24975 9.17393 5.27741 9.03171 5.31522 8.87199L5.74471 7.35496C5.78252 7.20935 5.81526 7.07108 5.84122 6.9424C5.86718 6.81259 5.8796 6.69351 5.8796 6.58515C5.8796 6.39213 5.83952 6.25668 5.75995 6.18049C5.67924 6.1043 5.52743 6.06706 5.30111 6.06706C5.1905 6.06706 5.07649 6.08342 4.95967 6.11785C4.84397 6.1534 4.74351 6.18557 4.66111 6.21718L4.77455 5.74988C5.05561 5.63531 5.32482 5.53711 5.58161 5.45584C5.8384 5.37344 6.08108 5.3328 6.30965 5.3328C6.72221 5.3328 7.04051 5.43326 7.26457 5.63192C7.4875 5.83115 7.59981 6.09019 7.59981 6.4085C7.59981 6.47453 7.59191 6.59079 7.57667 6.75672C7.56143 6.92321 7.53265 7.07503 7.49088 7.21443L7.06365 8.72695C7.02866 8.84829 6.99762 8.98713 6.9694 9.14233C6.94175 9.29753 6.9282 9.41605 6.9282 9.49563C6.9282 9.69654 6.97279 9.83369 7.06309 9.90649C7.15226 9.97929 7.30859 10.016 7.52982 10.016C7.63423 10.016 7.75106 9.99735 7.88312 9.96124C8.01406 9.92511 8.10887 9.89295 8.1687 9.86529L8.05413 10.332Z" fill="#736E7D"/>
</svg>
