<svg width="80" height="80" viewBox="0 0 80 80" fill="none" xmlns="http://www.w3.org/2000/svg">
<g filter="url(#filter0_d_449_14103)">
<path fill-rule="evenodd" clip-rule="evenodd" d="M43.7177 18.3126C42.6369 16.679 41.0334 14.2151 38.0534 12.8749C34.8984 11.4564 31.5475 11.6757 28.764 12.4217C25.2835 13.3545 22.293 15.2182 19.0214 16.6133L18.1152 13.2147C17.4789 10.884 15.2351 9.52035 12.904 10.156C10.5727 10.7918 9.54953 12.9225 10.1853 15.2538L23.7794 66.5723C23.7791 66.5709 23.7798 66.5737 23.7794 66.5723C24.3093 68.5264 25.9419 69.8576 27.8577 69.8576C28.2409 69.8576 28.6065 69.8496 28.9906 69.7443C31.3197 69.107 32.798 66.6367 32.1626 64.3066L26.9514 45.3878C29.975 43.435 33.1837 41.4494 36.694 40.5166C38.6082 46.0638 44.0011 46.2234 48.9289 44.8214C61.6926 41.1858 66.0981 27.4922 70 16.3867C62.8942 18.7873 53.4476 23.6642 45.9834 21.0314C45.1006 20.6944 44.178 19.0081 43.7177 18.3126Z" fill="white"/>
<path d="M37.1473 35.8717C40.3028 36.0582 40.8645 37.7787 41.2256 39.0437C41.9325 41.5011 46.4048 41.3866 48.4759 40.7977C54.9637 38.9519 58.478 31.6612 60.4841 27.4886C55.8724 28.6191 47.3477 30.8993 43.0381 29.3794C38.8389 27.8983 39.0949 22.3053 34.655 21.1448C31.01 20.192 26.1727 22.9572 26.1727 22.9572C26.1727 22.9572 28.9189 26.7589 29.4439 29.7543C30.1599 33.8395 26.1727 39.0437 26.1727 39.0437C29.7628 36.9692 34.1665 35.6947 37.1473 35.8717Z" fill="#36D41D"/>
<path d="M45.2592 23.5708C43.7086 23.0232 42.7787 21.6189 41.7001 19.9952C40.5673 18.2864 39.2834 16.3487 37.0271 15.3339C29.8971 12.8205 21.5018 17.5196 17.3412 19.9787L15.7033 13.9816C15.4625 13.099 14.5539 12.5797 13.6712 12.8205C12.7885 13.0612 12.2693 13.9698 12.51 14.8525L26.4464 65.9206C26.6447 66.6546 27.3126 67.1384 28.0395 67.1384C28.1835 67.1384 28.3298 67.1196 28.4761 67.0794C29.3588 66.8387 29.878 65.9301 29.6373 65.0474L23.9471 44.1955C27.5078 41.7421 33.7488 37.6012 37.8857 37.6012C39.4131 37.6012 38.5068 45.0413 48.3788 42.2294C57.9939 39.4906 62.7736 29.4607 65.7942 20.7426C59.6194 22.8009 51.6369 25.8203 45.2592 23.5708ZM22.5121 38.8926L18.9271 24.7721C21.5964 25.4636 23.9258 27.5712 24.7896 30.1862C25.8398 33.3723 24.6955 36.5272 22.5121 38.8926ZM47.4705 39.046C45.3994 39.6349 42.9758 40.5594 42.2688 38.102C41.9077 36.8369 41.2327 34.4815 38.0772 34.2951C35.0964 34.1181 30.6572 36.2304 27.0671 38.3049C28.5563 35.5318 28.9245 32.1712 27.9262 29.1454C26.8948 26.0206 23.8129 22.9055 20.8343 21.5979C22.8734 19.9787 31.0035 16.251 35.6697 18.3477C39.4283 20.0374 39.9574 25.2025 44.1567 26.6837C48.4663 28.2036 56.3256 26.8067 60.9374 25.6762C58.9313 29.8488 53.9583 37.2002 47.4705 39.046Z" fill="black"/>
</g>
<defs>
<filter id="filter0_d_449_14103" x="8" y="10" width="62" height="62.8577" filterUnits="userSpaceOnUse" color-interpolation-filters="sRGB">
<feFlood flood-opacity="0" result="BackgroundImageFix"/>
<feColorMatrix in="SourceAlpha" type="matrix" values="0 0 0 0 0 0 0 0 0 0 0 0 0 0 0 0 0 0 127 0" result="hardAlpha"/>
<feOffset dx="-2" dy="3"/>
<feComposite in2="hardAlpha" operator="out"/>
<feColorMatrix type="matrix" values="0 0 0 0 0 0 0 0 0 0 0 0 0 0 0 0 0 0 0.15 0"/>
<feBlend mode="normal" in2="BackgroundImageFix" result="effect1_dropShadow_449_14103"/>
<feBlend mode="normal" in="SourceGraphic" in2="effect1_dropShadow_449_14103" result="shape"/>
</filter>
</defs>
</svg>
