<svg width="80" height="80" viewBox="0 0 80 80" fill="none" xmlns="http://www.w3.org/2000/svg">
<g filter="url(#filter0_d_449_14104)">
<path fill-rule="evenodd" clip-rule="evenodd" d="M43.7177 18.3324C42.6369 16.6949 41.0334 14.2252 38.0534 12.8817C34.8984 11.4598 31.5475 11.6797 28.764 12.4275C25.2835 13.3625 22.293 15.2306 19.0214 16.629L18.1152 13.2224C17.4789 10.8861 15.2351 9.51921 12.904 10.1564C10.5727 10.7937 9.54953 12.9295 10.1853 15.2663L23.7794 66.7069C23.7791 66.7055 23.7798 66.7083 23.7794 66.7069C24.3093 68.6657 25.9419 70 27.8577 70C28.2409 70 28.6065 69.992 28.9906 69.8864C31.3197 69.2476 32.798 66.7715 32.1626 64.4358L26.9514 45.4721C29.975 43.5146 33.1837 41.5243 36.694 40.5892C38.6082 46.1496 44.0011 46.3096 48.9289 44.9043C61.6926 41.26 66.0981 27.5338 70 16.4019C62.8942 18.8082 53.4476 23.6967 45.9834 21.0577C45.1006 20.7198 44.178 19.0296 43.7177 18.3324Z" fill="white"/>
<path d="M37.1473 35.9333C40.3028 36.1202 40.8645 37.8448 41.2256 39.1128C41.9325 41.5761 46.4048 41.4613 48.4759 40.871C54.9637 39.0208 58.478 31.7128 60.4841 27.5302C55.8724 28.6634 47.3477 30.9491 43.0381 29.4256C38.8389 27.9409 39.0949 22.3346 34.655 21.1713C31.01 20.2163 26.1727 22.988 26.1727 22.988C26.1727 22.988 28.9189 26.7987 29.4439 29.8013C30.1599 33.8962 26.1727 39.1128 26.1727 39.1128C29.7628 37.0333 34.1665 35.7558 37.1473 35.9333Z" fill="#FFA25A"/>
<path d="M45.2592 23.603C43.7086 23.0542 42.7787 21.6466 41.7001 20.0189C40.5673 18.3062 39.2834 16.3639 37.0271 15.3466C29.8971 12.8272 21.5018 17.5375 17.3412 20.0025L15.7033 13.9911C15.4625 13.1064 14.5539 12.5859 13.6712 12.8272C12.7885 13.0685 12.2693 13.9793 12.51 14.8641L26.4464 66.0537C26.6447 66.7894 27.3126 67.2744 28.0395 67.2744C28.1835 67.2744 28.3298 67.2555 28.4761 67.2153C29.3588 66.974 29.878 66.0632 29.6373 65.1784L23.9471 44.2769C27.5078 41.8176 33.7488 37.6669 37.8857 37.6669C39.4131 37.6669 38.5068 45.1247 48.3788 42.3061C57.9939 39.5608 62.7736 29.5071 65.7942 20.7682C59.6194 22.8313 51.6369 25.8579 45.2592 23.603ZM22.5121 38.9614L18.9271 24.8072C21.5964 25.5004 23.9258 27.613 24.7896 30.2342C25.8398 33.4279 24.6955 36.5903 22.5121 38.9614ZM47.4705 39.1152C45.3994 39.7054 42.9758 40.6321 42.2688 38.1688C41.9077 36.9008 41.2327 34.5398 38.0772 34.3529C35.0964 34.1755 30.6572 36.2928 27.0671 38.3723C28.5563 35.5926 28.9245 32.2239 27.9262 29.191C26.8948 26.0587 23.8129 22.9362 20.8343 21.6255C22.8734 20.0025 31.0035 16.2659 35.6697 18.3676C39.4283 20.0613 39.9574 25.2387 44.1567 26.7234C48.4663 28.2469 56.3256 26.8467 60.9374 25.7135C58.9313 29.8961 53.9583 37.265 47.4705 39.1152Z" fill="black"/>
</g>
<defs>
<filter id="filter0_d_449_14104" x="8" y="10" width="62" height="63" filterUnits="userSpaceOnUse" color-interpolation-filters="sRGB">
<feFlood flood-opacity="0" result="BackgroundImageFix"/>
<feColorMatrix in="SourceAlpha" type="matrix" values="0 0 0 0 0 0 0 0 0 0 0 0 0 0 0 0 0 0 127 0" result="hardAlpha"/>
<feOffset dx="-2" dy="3"/>
<feComposite in2="hardAlpha" operator="out"/>
<feColorMatrix type="matrix" values="0 0 0 0 0 0 0 0 0 0 0 0 0 0 0 0 0 0 0.15 0"/>
<feBlend mode="normal" in2="BackgroundImageFix" result="effect1_dropShadow_449_14104"/>
<feBlend mode="normal" in="SourceGraphic" in2="effect1_dropShadow_449_14104" result="shape"/>
</filter>
</defs>
</svg>
