<svg id="Capa_1" data-name="Capa 1" xmlns="http://www.w3.org/2000/svg" viewBox="0 0 24 24"><defs><style>.cls-1{fill:#1d1d1b;}</style></defs><path class="cls-1" d="M16.93,13.13V5.45A1.74,1.74,0,0,0,15.18,3.7H7.4A2.05,2.05,0,0,0,6.27,4,1.94,1.94,0,0,0,5.52,5L3.05,10.81a2.27,2.27,0,0,0-.2.89s-.29,2.59.77,2.59h6.54l.06,0s0,0,0,0l0,.05v0s-1,3.63-1,4,.94,2.06,1.36,1.78l5.64-5.65a2.21,2.21,0,0,0,.46-.68A2,2,0,0,0,16.93,13.13Z"/><rect class="cls-1" x="17.92" y="3.78" width="3.22" height="10.07" rx="0.87"/></svg>