<svg width="64" height="64" viewBox="0 0 64 64" fill="none" xmlns="http://www.w3.org/2000/svg">
<g clip-path="url(#clip0_96_1681)">
<path opacity="0.8" d="M49.3319 0.161805C48.4941 0.497165 48.0621 0.819095 46.9869 1.89558L45.8983 3.00085L47.001 3.93718C50.1838 6.62198 52.8218 10.0761 54.7066 14.005C56.8289 18.4377 57.7082 22.3813 57.6801 27.3868C57.6666 32.2534 56.7034 36.3782 54.5805 40.727C48.592 52.9619 35.1482 59.744 21.6634 57.3107C14.9626 56.1088 8.66626 52.5011 4.18497 47.3407L2.98435 45.9571L1.90978 47.1033C-0.673268 49.8579 -0.645096 51.3126 2.04931 53.9551C7.78691 59.5903 15.2973 63.0444 23.618 63.8828C25.7959 64.1068 30.8359 63.9948 32.8596 63.6729C34.8557 63.3657 38.2343 62.4979 39.993 61.8553C41.8074 61.1839 45.2423 59.4918 46.8193 58.4991C49.081 57.0732 51.2589 55.3248 53.3108 53.2556C56.4372 50.1235 58.4621 47.2851 60.3604 43.3977C62.0634 39.902 63.1386 36.4761 63.7249 32.631C64.0462 30.519 64.1018 24.3942 63.8087 22.423C62.7751 15.5148 60.1652 9.47383 55.9207 4.17462C54.2593 2.09142 52.5562 0.497173 51.7044 0.218133C50.9236 -0.0474676 49.9463 -0.0756357 49.3319 0.161805Z" fill="#736E7D"/>
<path opacity="0.4" d="M24.5671 24.6464L6.08386 43.1603L6.9914 44.2656C10.8858 48.9216 16.1351 52.082 22.1101 53.3402C24.4551 53.8439 28.5178 53.9559 31.0029 53.6058C36.9216 52.7668 42.1146 50.1101 46.3309 45.7613C50.2529 41.7204 52.738 36.6586 53.5194 31.0931C53.7991 29.1911 53.7844 25.5136 53.506 23.5706C52.7105 18.1447 50.2945 13.1667 46.498 9.19555C45.2973 7.93667 43.3012 6.13379 43.106 6.13379C43.0778 6.13315 34.7296 14.4666 24.5671 24.6464ZM43.2173 15.2358C43.6922 15.4176 44.3341 16.0051 44.5997 16.5082C44.9063 17.1091 44.8506 18.3123 44.4743 18.8717C43.7063 20.0039 42.0026 20.857 40.4256 20.871C39.5603 20.8851 39.4343 20.8429 39.1828 20.5357C38.5965 19.8227 39.1412 17.6128 40.258 16.1453C40.928 15.264 42.2259 14.8582 43.2173 15.2358ZM46.7072 27.1213C47.6007 27.5552 48.0621 28.3936 47.9777 29.4707C47.8663 30.9811 46.6516 32.0013 45.1713 31.8061C43.65 31.5962 41.8068 30.5754 41.3882 29.7088C41.1789 29.2749 41.1789 29.1629 41.3466 28.7578C41.5981 28.1703 42.4077 27.5975 43.6218 27.1776C44.8365 26.7443 45.8976 26.7303 46.7072 27.1213ZM40.3693 37.5667C42.6177 38.6157 43.3709 40.2381 42.338 41.8183C41.7236 42.7693 40.3834 43.1751 39.3082 42.7271C38.3866 42.3347 37.312 40.7271 36.9767 39.1892C36.7674 38.2944 36.8935 37.6787 37.3677 37.3011C37.8983 36.8819 39.1546 36.9939 40.3693 37.5667ZM20.5184 39.2589C20.8115 39.4964 20.8538 39.6365 20.8397 40.4896C20.8263 42.0692 19.9744 43.7754 18.8435 44.5447C18.2848 44.9223 17.0848 44.9786 16.4838 44.6701C15.1994 43.9994 14.7251 42.5728 15.3536 41.2864C16.1069 39.7204 19.4714 38.4064 20.5184 39.2589ZM29.9552 41.6084C30.6253 42.0557 31.5469 43.8874 31.7421 45.1738C32.0634 47.314 29.8291 48.8378 27.959 47.7332C26.7859 47.0484 26.4787 45.538 27.1354 43.6916C27.8752 41.5802 28.8384 40.8807 29.9552 41.6084Z" fill="#736E7D"/>
</g>
<defs>
<clipPath id="clip0_96_1681">
<rect width="64" height="64" fill="white"/>
</clipPath>
</defs>
</svg>
