<svg width="28" height="28" viewBox="0 0 28 28" fill="none" xmlns="http://www.w3.org/2000/svg">
<g clip-path="url(#clip0_554_1182)">
<rect width="28" height="28" fill="url(#paint0_linear_554_1182)"/>
<rect y="25.1431" width="28" height="2.85714" fill="#A917CD"/>
<rect y="22.2856" width="28" height="2.85714" fill="#E549F5"/>
<path d="M0 19.4282H19.8333V22.2854H0V19.4282Z" fill="#FD8DFF"/>
<path fill-rule="evenodd" clip-rule="evenodd" d="M10.542 9.56396V19.4352H18.768L10.542 9.56396Z" fill="url(#paint1_linear_554_1182)"/>
<path fill-rule="evenodd" clip-rule="evenodd" d="M2.31592 19.4352H10.5419V9.56396L2.31592 19.4352Z" fill="#FEEDFD"/>
<path fill-rule="evenodd" clip-rule="evenodd" d="M20.0693 15.1567V22.286H26.1052L20.0693 15.1567Z" fill="url(#paint2_linear_554_1182)"/>
<path fill-rule="evenodd" clip-rule="evenodd" d="M14.0403 22.286H20.0695V15.1567L14.0403 22.286Z" fill="#FEEDFD"/>
<path d="M20.0579 12.0625C20.5601 12.0628 20.9968 11.3108 21.2289 10.1958C21.2604 10.0324 21.3402 9.88215 21.4581 9.76457C21.576 9.64699 21.7266 9.56749 21.8903 9.53637C22.994 9.31933 23.7609 8.87112 23.7613 8.36962C23.7616 7.86812 23.0086 7.43211 21.8921 7.20042C21.7284 7.16907 21.578 7.08937 21.4602 6.97164C21.3425 6.8539 21.2629 6.70357 21.2317 6.54011C21.0145 5.43798 20.5658 4.67223 20.0635 4.6719C19.5613 4.67157 19.1246 5.42354 18.8925 6.53857C18.8611 6.70198 18.7812 6.85222 18.6633 6.9698C18.5454 7.08738 18.3948 7.16688 18.2312 7.19801C17.1274 7.41504 16.3605 7.86324 16.3602 8.36475C16.3598 8.86625 17.1128 9.30226 18.2294 9.53395C18.393 9.5653 18.5434 9.645 18.6612 9.76273C18.7789 9.88047 18.8585 10.0308 18.8897 10.1943C19.1201 11.3096 19.5491 12.0687 20.0579 12.0625Z" fill="#FD9CFF"/>
<path d="M20.0605 10.4045C20.3373 10.4047 20.578 9.99021 20.706 9.37564C20.7233 9.28557 20.7673 9.20277 20.8323 9.13796C20.8972 9.07316 20.9802 9.02934 21.0705 9.01218C21.6788 8.89256 22.1015 8.64552 22.1017 8.36911C22.1019 8.0927 21.6869 7.85239 21.0714 7.72469C20.9812 7.70741 20.8983 7.66348 20.8334 7.59859C20.7685 7.5337 20.7247 7.45084 20.7075 7.36075C20.5878 6.75329 20.3404 6.33124 20.0636 6.33105C19.7868 6.33087 19.5461 6.74533 19.4182 7.3599C19.4009 7.44997 19.3569 7.53277 19.2919 7.59758C19.2269 7.66238 19.1439 7.7062 19.0537 7.72336C18.4453 7.84298 18.0227 8.09001 18.0224 8.36643C18.0222 8.64284 18.4373 8.88315 19.0527 9.01085C19.1429 9.02813 19.2258 9.07206 19.2907 9.13695C19.3556 9.20184 19.3995 9.2847 19.4166 9.37479C19.5436 9.98953 19.7801 10.4079 20.0605 10.4045Z" fill="#FEEDFD"/>
<path d="M10.5221 7.21734C10.8437 7.21755 11.1233 6.73611 11.2719 6.02222C11.292 5.91759 11.3431 5.82141 11.4186 5.74613C11.4941 5.67085 11.5905 5.61995 11.6953 5.60002C12.402 5.46107 12.893 5.1741 12.8932 4.85302C12.8934 4.53194 12.4113 4.25278 11.6965 4.10445C11.5917 4.08438 11.4954 4.03335 11.42 3.95797C11.3446 3.88259 11.2936 3.78634 11.2737 3.68169C11.1346 2.97606 10.8473 2.48579 10.5258 2.48558C10.2042 2.48537 9.92462 2.96681 9.77599 3.6807C9.75589 3.78533 9.70478 3.88151 9.62928 3.95679C9.55379 4.03207 9.45739 4.08297 9.35259 4.1029C8.64594 4.24185 8.15495 4.52882 8.1547 4.8499C8.15446 5.17098 8.63656 5.45014 9.35145 5.59847C9.45622 5.61854 9.55254 5.66957 9.62792 5.74495C9.70329 5.82033 9.75426 5.91658 9.7742 6.02123C9.92174 6.73532 10.1964 7.22135 10.5221 7.21734Z" fill="#FD9CFF"/>
<path d="M10.5237 6.04915C10.6864 6.04925 10.8278 5.80574 10.903 5.44465C10.9132 5.39173 10.939 5.34307 10.9772 5.305C11.0154 5.26692 11.0641 5.24117 11.1171 5.23109C11.4746 5.16081 11.7229 5.01566 11.723 4.85326C11.7232 4.69085 11.4793 4.54965 11.1177 4.47462C11.0647 4.46447 11.016 4.43866 10.9779 4.40053C10.9398 4.36241 10.914 4.31372 10.9039 4.26079C10.8335 3.90387 10.6882 3.65589 10.5256 3.65579C10.3629 3.65568 10.2215 3.8992 10.1463 4.26029C10.1362 4.31321 10.1103 4.36186 10.0721 4.39994C10.0339 4.43801 9.98519 4.46376 9.93218 4.47384C9.57475 4.54412 9.3264 4.68927 9.32628 4.85168C9.32615 5.01408 9.57 5.15528 9.9316 5.23031C9.98459 5.24046 10.0333 5.26627 10.0714 5.3044C10.1096 5.34253 10.1353 5.39121 10.1454 5.44415C10.2201 5.80534 10.359 6.05117 10.5237 6.04915Z" fill="#FEEDFD"/>
</g>
<defs>
<linearGradient id="paint0_linear_554_1182" x1="-4.66667" y1="26.25" x2="20.0776" y2="-6.5366" gradientUnits="userSpaceOnUse">
<stop stop-color="#EB74EF"/>
<stop offset="0.473958" stop-color="#C640CD"/>
<stop offset="1" stop-color="#6D40CD"/>
</linearGradient>
<linearGradient id="paint1_linear_554_1182" x1="10.5392" y1="9.56397" x2="10.5392" y2="19.4352" gradientUnits="userSpaceOnUse">
<stop stop-color="#6A54C0"/>
<stop offset="0.0001" stop-color="#3A38A8"/>
<stop offset="1" stop-color="#A612DA"/>
</linearGradient>
<linearGradient id="paint2_linear_554_1182" x1="20.0673" y1="15.1567" x2="20.0673" y2="22.286" gradientUnits="userSpaceOnUse">
<stop stop-color="#6A54C0"/>
<stop offset="0.0001" stop-color="#3A38A8"/>
<stop offset="1" stop-color="#A612DA"/>
</linearGradient>
<clipPath id="clip0_554_1182">
<rect width="28" height="28" rx="7" fill="white"/>
</clipPath>
</defs>
</svg>
